<svg width="3046" height="846" xmlns="http://www.w3.org/2000/svg" xmlns:xlink="http://www.w3.org/1999/xlink" xml:space="preserve" overflow="hidden"><g transform="translate(-677 -700)"><path d="M1711.35 1032.8 1771.76 1032.8 1771.76 1142.8C1771.76 1170.48 1782.19 1184.32 1803.05 1184.32 1819.18 1184.32 1833.61 1174.35 1846.34 1154.41L1846.34 1032.8 1906.75 1032.8 1906.75 1228.2 1846.34 1228.2 1846.34 1201.24C1836.63 1211.74 1826.4 1219.44 1815.64 1224.36 1804.88 1229.28 1793.08 1231.74 1780.22 1231.74 1734.3 1231.74 1711.35 1204.39 1711.35 1149.69ZM1451.18 953.302 1717.22 953.302 1717.22 1010.56 1618.44 1010.56 1618.44 1228.2 1549.17 1228.2 1549.17 1010.56 1451.18 1010.56Z" stroke="#000000" stroke-width="3" stroke-linejoin="round" stroke-miterlimit="10" fill-rule="evenodd"/><text fill="#000000" fill-opacity="0" font-family="Arial,Arial_MSFontService,sans-serif" font-size="278.44" x="1451.18" y="1196.94">Tu</text><path d="M2042.94 949.76C2058.29 949.76 2073.21 951.696 2087.71 955.565 2102.2 959.435 2114.96 964.716 2125.98 971.406L2125.98 1030.24C2100.01 1009.91 2074.62 999.742 2049.83 999.742 2039.07 999.742 2030.94 1001.94 2025.43 1006.33 2019.92 1010.73 2017.16 1016.6 2017.16 1023.95 2017.16 1030.64 2019.98 1036.67 2025.62 1042.05 2031.26 1047.43 2042.28 1054.25 2058.68 1062.51 2077.05 1071.96 2091.51 1080.39 2102.07 1087.8 2112.63 1095.21 2121.16 1104.07 2127.65 1114.36 2134.15 1124.66 2137.39 1137.22 2137.39 1152.05 2137.39 1167.92 2133.36 1181.89 2125.29 1193.96 2117.22 1206.03 2105.88 1215.34 2091.25 1221.9 2076.62 1228.46 2059.99 1231.74 2041.37 1231.74 2011.85 1231.74 1982.07 1224.13 1952.03 1208.92L1952.03 1146.73C1979.58 1168.77 2006.4 1179.79 2032.51 1179.79 2044.06 1179.79 2052.84 1177.4 2058.88 1172.61 2064.91 1167.82 2067.93 1161.89 2067.93 1154.8 2067.93 1149.69 2066.82 1145.26 2064.59 1141.52 2062.36 1137.78 2057.73 1133.42 2050.71 1128.43 2043.69 1123.45 2032.9 1117.48 2018.34 1110.53 2004.96 1103.57 1993.58 1096.79 1984.2 1090.16 1974.82 1083.54 1966.75 1074.88 1960 1064.19 1953.24 1053.49 1949.86 1040.74 1949.86 1025.91 1949.86 1011.61 1953.5 998.693 1960.79 987.148 1968.07 975.604 1978.69 966.487 1992.66 959.796 2006.63 953.106 2023.39 949.76 2042.94 949.76Z" stroke="#000000" stroke-width="3" stroke-linejoin="round" stroke-miterlimit="10" fill-rule="evenodd"/><text fill="#000000" fill-opacity="0" font-family="Arial,Arial_MSFontService,sans-serif" font-size="281.982" x="1949.86" y="1196.49">S</text><path d="M2278.94 1133.55C2265.95 1138.93 2256.18 1143.29 2249.62 1146.64 2243.06 1149.98 2237.84 1153.95 2233.97 1158.54 2230.1 1163.13 2228.17 1168.64 2228.17 1175.07 2228.17 1181.76 2230.17 1187.11 2234.17 1191.11 2238.17 1195.11 2243.25 1197.11 2249.42 1197.11 2258.08 1197.11 2267.92 1192.45 2278.94 1183.14ZM2836.77 1075.11C2823.65 1075.11 2812.99 1079.86 2804.8 1089.37 2796.6 1098.88 2792.5 1111.58 2792.5 1127.45 2792.5 1146.73 2796.86 1160.54 2805.58 1168.87 2814.31 1177.2 2829.16 1181.37 2850.15 1181.37L2872.78 1181.37 2872.78 1085.93C2862.29 1078.72 2850.28 1075.11 2836.77 1075.11ZM2495.61 1032.8 2556.02 1032.8 2556.02 1142.8C2556.02 1170.48 2566.45 1184.32 2587.31 1184.32 2603.45 1184.32 2617.88 1174.35 2630.6 1154.41L2630.6 1032.8 2691.01 1032.8 2691.01 1228.2 2630.6 1228.2 2630.6 1201.24C2620.89 1211.74 2610.66 1219.44 2599.9 1224.36 2589.15 1229.28 2577.34 1231.74 2564.48 1231.74 2518.57 1231.74 2495.61 1204.39 2495.61 1149.69ZM2258.27 1029.06C2284.38 1029.06 2304.42 1034.51 2318.39 1045.39 2332.36 1056.28 2339.35 1071.43 2339.35 1090.85L2339.35 1171.33C2339.35 1176.45 2339.94 1180.48 2341.12 1183.43 2342.3 1186.39 2344.66 1187.86 2348.2 1187.86 2352.79 1187.86 2358.83 1185.57 2366.31 1180.97L2366.31 1218.16C2355.81 1223.02 2346.4 1226.49 2338.07 1228.59 2329.74 1230.69 2321.44 1231.74 2313.18 1231.74 2304.52 1231.74 2297.56 1230.07 2292.32 1226.72 2287.07 1223.38 2283.53 1218.23 2281.69 1211.28 2265.82 1224.92 2246.6 1231.74 2224.04 1231.74 2206.59 1231.74 2192.98 1227.25 2183.2 1218.26 2173.43 1209.28 2168.54 1197.44 2168.54 1182.74 2168.54 1169.76 2172.35 1159.03 2179.96 1150.57 2187.57 1142.11 2198.65 1134.8 2213.21 1128.63 2227.77 1122.47 2249.68 1114.66 2278.94 1105.21L2278.94 1100.89C2278.94 1089.87 2276.25 1082.13 2270.87 1077.67 2265.49 1073.21 2257.55 1070.98 2247.06 1070.98 2234.2 1070.98 2221.51 1073.99 2208.98 1080.03 2196.45 1086.06 2184.94 1094.72 2174.45 1106L2174.45 1055.63C2196.75 1037.92 2224.69 1029.06 2258.27 1029.06ZM2872.78 953.302 2932.8 953.302 2932.8 1228.2 2844.05 1228.2C2802.99 1228.2 2773.61 1219.54 2755.9 1202.23 2738.19 1184.91 2729.33 1160.12 2729.33 1127.84 2729.33 1109.87 2733 1093.44 2740.35 1078.55 2747.7 1063.66 2758.49 1051.69 2772.72 1042.64 2786.95 1033.59 2803.78 1029.06 2823.19 1029.06 2842.22 1029.06 2858.75 1033.39 2872.78 1042.05ZM2390.58 953.302 2450.99 953.302 2450.99 1228.2 2390.58 1228.2Z" stroke="#000000" stroke-width="3" stroke-linejoin="round" stroke-miterlimit="10" fill-rule="evenodd"/><text fill="#000000" fill-opacity="0" font-family="Arial,Arial_MSFontService,sans-serif" font-size="278.44" x="2168.54" y="1196.94">alud</text><path d="M1312.45 1277.94C1507.32 1297.69 2574.63 1389.62 2839.37 1318.67 3104.11 1247.71 3063.09 929.94 2900.91 852.195 2738.73 774.45 1926.55 873.174 1866.3 852.195 1806.04 831.216 2329.76 747.301 2539.37 726.322 2748.99 705.343 2984.24 679.428 3123.99 726.322 3263.73 773.215 3354.11 887.982 3377.83 1007.69 3401.55 1127.39 3384.24 1355.07 3266.29 1444.54 3148.35 1534.01 2947.7 1551.9 2670.14 1544.5 2392.58 1537.09 1911.81 1464.28 1600.91 1400.11 1290.01 1335.94 1117.58 1258.2 1312.45 1277.94Z" fill-rule="evenodd"/></g></svg>